<svg xmlns="http://www.w3.org/2000/svg" width="262.704" height="147.542" viewBox="0 0 262.704 147.542">
  <g id="Group_56356" data-name="Group 56356" transform="translate(-225.782 -346.657)">
    <path id="Path_1" data-name="Path 1" d="M591.492,641.28a4.75,4.75,0,0,1-2.281-1.63c-.309-.488-.444-.847.194-1.2.455-.248.79-.755,1.256.02a2.076,2.076,0,0,0,1.507.955,2.008,2.008,0,0,0,2.368-.945c.516-1.036-.2-1.645-.924-2.187-.609-.459-1.3-.818-1.878-1.307a2.847,2.847,0,0,1-.311-4.259,3.938,3.938,0,0,1,4.308-.973,2.078,2.078,0,0,1,1.454,1.494c.089.7-.8.767-1.2,1.185-.947-1.247-1.776-1.555-2.709-1.029a1.366,1.366,0,0,0-.23,2.423c.57.444,1.222.78,1.818,1.193a3.055,3.055,0,0,1,1.636,3.05,3.553,3.553,0,0,1-2.551,2.96c-.212.073-.418.163-.627.245Z" transform="translate(-189.279 -147.406)" fill="#fff"/>
    <path id="Path_2" data-name="Path 2" d="M639.92,641.28a4.751,4.751,0,0,1-2.281-1.63c-.309-.488-.444-.847.194-1.2.455-.248.79-.755,1.256.02a2.075,2.075,0,0,0,1.507.955,2.008,2.008,0,0,0,2.368-.945c.516-1.036-.2-1.645-.924-2.187-.609-.459-1.3-.818-1.878-1.307a2.847,2.847,0,0,1-.311-4.259,3.938,3.938,0,0,1,4.308-.973,2.078,2.078,0,0,1,1.454,1.494c.089.7-.8.767-1.219,1.21a1.964,1.964,0,0,0-2.262-1.223,1.632,1.632,0,0,0-1.256,1.215,1.3,1.3,0,0,0,.693,1.446c.562.394,1.162.733,1.727,1.123a3.057,3.057,0,0,1,1.636,3.05,3.554,3.554,0,0,1-2.551,2.96c-.211.073-.418.163-.627.245Z" transform="translate(-214.519 -147.406)" fill="#fff"/>
    <path id="Path_3" data-name="Path 3" d="M573.24,443.869c-8.992,0-17.984-.015-26.976.021-.995,0-1.051-.23-.858-1.145.946-4.48,1.8-8.978,2.668-13.474,1.507-7.834,2.906-15.69,4.515-23.5,2.547-12.372,4.705-24.819,7.235-37.193,1.437-7.029,2.75-14.081,4.108-21.125.107-.554.336-.82.907-.76a5.6,5.6,0,0,0,.574,0q26.862,0,53.723-.019c.967,0,1.306.1,1.074,1.212-1.207,5.789-2.339,11.594-3.454,17.4-.144.751-.594.658-1.082.659q-4.822,0-9.642,0c-8.151,0-16.3.013-24.451-.019-.893,0-1.232.229-1.4,1.153-1.021,5.632-2.1,11.254-3.216,16.87-.167.845.033.99.849.987,9.489-.028,18.979,0,28.468-.039.99,0,1.275.124,1.053,1.215-1.148,5.649-2.223,11.312-3.27,16.98-.178.96-.53,1.274-1.542,1.27-9.451-.044-18.9-.012-28.353-.048-.924,0-1.319.2-1.492,1.17q-1.607,8.958-3.358,17.891c-.2,1.013.148,1.042.94,1.041q16.817-.026,33.634-.014c1.671,0,1.454,0,1.17,1.4-1.15,5.683-2.291,11.369-3.376,17.065-.156.819-.439,1.019-1.243,1.016C591.377,443.858,582.309,443.869,573.24,443.869Z" transform="translate(-166.537 -0.008)" fill="#fff"/>
    <path id="Path_4" data-name="Path 4" d="M395.3,364.134c.969-5.051,1.9-9.99,2.868-14.923.5-2.535.525-2.53,3.173-2.53,9.028,0,18.057.061,27.085-.022a33.235,33.235,0,0,1,16.557,3.817A24.008,24.008,0,0,1,456.8,365.027c1.84,6,1.654,12.054.406,18.126a34.383,34.383,0,0,1-14.455,22.006c-6.222,4.226-13.156,6.125-20.513,6.815-5.038.473-10.093.169-15.14.219-.813.008-1.138.151-1.306,1.067-1.334,7.28-2.7,14.557-4.186,21.807-.552,2.689-1.115,5.378-1.634,8.074-.111.574-.316.733-.876.731q-9.238-.026-18.477.006c-.777,0-.76-.312-.649-.886q2.121-10.956,4.22-21.918c.8-4.159,1.5-8.338,2.4-12.477,1.591-7.387,2.873-14.831,4.335-22.242.129-.657.406-.772.995-.747a85.92,85.92,0,0,1,14.527,1.867c.66.142.8.371.68,1.069-.953,5.445-1.843,10.9-2.762,16.353a1.353,1.353,0,0,0,.375,1.463,1.47,1.47,0,0,0,1.62-.121c5.394-2.858,11-5.273,16.47-7.983,8.921-4.422,17.961-8.6,26.951-12.887a2.1,2.1,0,0,0,1.1-.775,1.284,1.284,0,0,0-.355-1.648q-6.489-6.395-12.977-12.791c-.434-.429-.824-.9-1.258-1.33q-6.759-6.7-13.523-13.389c-2.114-2.1-4.188-4.244-6.291-6.357a4.4,4.4,0,0,0-1.067-.853c-.815-.413-1.461,0-1.651,1.09-.511,2.929-.98,5.866-1.468,8.8-.281,1.694-.58,3.385-.842,5.082-.069.447-.2.663-.707.637A107.714,107.714,0,0,0,395.3,364.134Z" transform="translate(-80.331 0)" fill="#fff"/>
    <path id="Path_5" data-name="Path 5" d="M329.077,434.324c-.529,2.777-1.061,5.573-1.594,8.369-1.508,7.909-2.912,15.839-4.554,23.72-1.549,7.434-2.912,14.9-4.348,22.355-.12.62-.411.767-1.006.766-6.121-.02-12.242-.033-18.363.009-.92.006-.874-.381-.746-1.024q2.219-11.228,4.419-22.46c.892-4.568,1.779-9.139,2.622-13.717a7.842,7.842,0,0,1,2.15-3.59,48.842,48.842,0,0,1,20.437-14.27A1.18,1.18,0,0,1,329.077,434.324Z" transform="translate(-37.846 -45.66)" fill="#fff"/>
    <path id="Path_6" data-name="Path 6" d="M320.444,389.331c1.214-6.345,2.381-12.445,3.548-18.544.811-4.236,1.563-8.485,2.453-12.7.74-3.509,1.466-7.02,2.079-10.553.113-.653.407-.852,1.073-.849q9.125.039,18.25.008c.649,0,.97.052.8.88q-1.979,9.877-3.864,19.772a2.246,2.246,0,0,1-1.464,1.9,48.756,48.756,0,0,0-12.1,7.13,41.788,41.788,0,0,0-10.15,11.995C320.935,388.63,320.749,388.87,320.444,389.331Z" transform="translate(-49.336 -0.012)" fill="#fff"/>
    <path id="Subtraction_1" data-name="Subtraction 1" d="M7.01,18.154h0A6.9,6.9,0,0,1,2.02,16.138a6.822,6.822,0,0,1-1.513-2.4A8.378,8.378,0,0,1,0,10.612a11.593,11.593,0,0,1,1.554-5.85A10.154,10.154,0,0,1,6.148.81,8.486,8.486,0,0,1,9.689,0a6.844,6.844,0,0,1,4.886,1.989A7.821,7.821,0,0,1,16.735,7.6a11.223,11.223,0,0,1-.518,3.361,10.942,10.942,0,0,1-1.443,2.952,10.227,10.227,0,0,1-2.217,2.325,9.374,9.374,0,0,1-2.839,1.479A8.963,8.963,0,0,1,7.01,18.154Zm2.312-15.4h0a5.365,5.365,0,0,0-2.24.517A8.173,8.173,0,0,0,2.8,11.014c.337,2.628,2.135,4.394,4.474,4.395a5.593,5.593,0,0,0,2.5-.629,7.546,7.546,0,0,0,4.159-6.361A6,6,0,0,0,12.4,4.042,4.286,4.286,0,0,0,9.322,2.757Z" transform="translate(338.642 456.925)" fill="#fff" stroke="rgba(0,0,0,0)" stroke-width="1"/>
    <path id="Path_8" data-name="Path 8" d="M369.659,595.076l-8.241-11.632c-.678,3.418-1.371,6.567-1.9,9.742-.189,1.145-.589,1.6-1.726,1.416a9.262,9.262,0,0,0-1.35-.01c1.151-5.848,2.283-11.6,3.487-17.712l8.219,11.653c.488-2.462.931-4.7,1.376-6.931.216-1.085.507-2.161.633-3.256.091-.792.412-1.045,1.168-.97.562.056,1.134.011,1.8.011C371.982,583.247,370.853,589,369.659,595.076Z" transform="translate(-68.1 -119.988)" fill="#fff"/>
    <path id="Path_9" data-name="Path 9" d="M243.463,583.438c-.684,3.462-1.374,6.622-1.9,9.807-.184,1.1-.561,1.539-1.661,1.356a9.488,9.488,0,0,0-1.4-.011c1.151-5.852,2.286-11.616,3.486-17.712l8.207,11.64c.4-1.95.75-3.676,1.1-5.4.323-1.609.689-3.211.934-4.832.112-.738.4-.923,1.1-.915,1.847.02,1.85-.013,1.486,1.85-1.007,5.166-2.016,10.33-3.1,15.862Z" transform="translate(-6.626 -119.988)" fill="#fff"/>
    <path id="Path_10" data-name="Path 10" d="M501.385,576.866l8.2,11.642c.331-1.607.622-2.992.9-4.378.384-1.908.813-3.809,1.11-5.731.127-.822.409-1.16,1.233-1.028a2.715,2.715,0,0,0,.8,0c.784-.11.946.177.792.938-1.09,5.382-2.141,10.773-3.207,16.161a3.8,3.8,0,0,1-.2.47l-8.14-11.488c-.367,1.794-.7,3.365-1.008,4.94-.335,1.683-.722,3.361-.953,5.06-.126.924-.475,1.259-1.379,1.143a14.111,14.111,0,0,0-1.642-.011Z" transform="translate(-141.823 -119.982)" fill="#fff"/>
    <path id="Subtraction_9" data-name="Subtraction 9" d="M10.851,17.265c-1.3,0-1.492-.377-2.392-2.187-.167-.336-.342-.677-.51-1.006-.465-.908-.945-1.846-1.336-2.8a1.047,1.047,0,0,0-1.1-.751c-.119,0-.243.009-.363.017s-.247.018-.369.018a1.863,1.863,0,0,1-.2-.01,1.234,1.234,0,0,0-.133-.008c-.512,0-.554.384-.594.754-.01.09-.02.182-.037.266q-.076.378-.152.756c-.262,1.3-.533,2.638-.751,3.964-.115.7-.371.988-.883.988a1.765,1.765,0,0,1-.282-.025,3.053,3.053,0,0,0-.489-.037,4.606,4.606,0,0,0-.541.035A1.819,1.819,0,0,1,.5,17.25a.507.507,0,0,1-.414-.142.966.966,0,0,1-.035-.739c.838-4.2,1.936-9.749,3-15.391C3.177.344,3.374,0,4.07,0c.049,0,.1,0,.157.005.43.026.893.038,1.459.038.36,0,.718,0,1.063-.009S7.455.025,7.8.025H7.9a6.37,6.37,0,0,1,3.545.952,4.238,4.238,0,0,1,1.793,2.63,5.48,5.48,0,0,1-.495,3.646A5.491,5.491,0,0,1,10.054,9.86c-.5.216-.733.395-.806.616-.084.254.053.574.285.977.737,1.279,1.389,2.577,2.08,3.95.277.552.564,1.122.856,1.69-.081.033-.135.057-.171.073a.311.311,0,0,1-.091.033h0C11.646,17.236,11.206,17.265,10.851,17.265Zm-6.179-9c.291,0,.592.009.834.017h.006c.27.008.55.016.821.016a4.515,4.515,0,0,0,3.008-.865,2.8,2.8,0,0,0,1.159-2.7A2.163,2.163,0,0,0,8.847,2.885a4.748,4.748,0,0,0-1.378-.167c-.222,0-.447.008-.664.015s-.446.015-.669.015c-.087,0-.168,0-.246,0H5.866c-.36,0-.395.251-.429.494-.007.047-.013.1-.022.141-.253,1.246-.5,2.48-.755,3.786l-.217,1.1Z" transform="translate(273.902 457.373)" fill="#fff" stroke="rgba(0,0,0,0)" stroke-width="1"/>
    <path id="Subtraction_5" data-name="Subtraction 5" d="M10.193,17.31c-.567,0-.982-.385-1.344-1.247-.375-.892-.821-1.772-1.252-2.623-.366-.722-.744-1.469-1.078-2.221a1.02,1.02,0,0,0-1.038-.7c-.14,0-.286.015-.427.029s-.287.029-.426.029a1.591,1.591,0,0,1-.18-.009,1.04,1.04,0,0,0-.118-.007c-.459,0-.5.361-.532.711-.009.09-.018.176-.034.255-.07.349-.143.7-.213,1.047-.239,1.164-.486,2.368-.662,3.561-.124.842-.439,1.141-1.2,1.141-.057,0-.119,0-.182-.005l-.184-.01C.6,17.219.235,17.2.085,17.009s-.08-.584.069-1.353l0-.014C.426,14.256.7,12.853.965,11.5,1.627,8.1,2.312,4.6,2.957,1.144,3.092.42,3.325,0,4.113,0c.074,0,.155,0,.239.011.408.034.848.05,1.386.05.345,0,.7-.007,1.036-.013h.051c.317-.006.645-.012.968-.012h.114c2.765.009,4.73,1.332,5.257,3.537A5.478,5.478,0,0,1,12.7,7.229a5.358,5.358,0,0,1-2.669,2.615c-.518.221-.771.414-.848.645-.086.261.053.577.321,1.034.466.792.886,1.629,1.292,2.439.368.734.749,1.494,1.163,2.218.259.453.335.741.239.907-.072.125-.24.183-.527.183a3.389,3.389,0,0,1-.4-.027,1.484,1.484,0,0,0-.178-.009l-.16,0c-.081,0-.182,0-.305,0A1.551,1.551,0,0,1,10.193,17.31ZM7.63,2.707c-.309,0-.626.02-.933.04-.222.014-.452.029-.673.036-.778.023-.791.587-.8,1.132a2.369,2.369,0,0,1-.07.637,10.6,10.6,0,0,0-.319,1.461c-.037.216-.075.44-.118.658-.159.8-.239,1.208-.071,1.413s.611.21,1.486.21c.159.011.314.017.462.017a4.223,4.223,0,0,0,2.815-.956,2.716,2.716,0,0,0,.857-3.185A2.6,2.6,0,0,0,7.63,2.707Z" transform="translate(435.589 457.362)" fill="#fff" stroke="rgba(0,0,0,0)" stroke-width="1"/>
    <path id="Path_13" data-name="Path 13" d="M312.644,577.935c-.236,2.71-.236,2.71-2.815,2.71-1.3,0-2.6.025-3.9-.011-.61-.017-.928.154-.957.808a8.686,8.686,0,0,1-.231,1.235c-.418,2.177-.418,2.177,1.745,2.177.956,0,1.914.034,2.868-.011.733-.035,1.031.1.835.947-.411,1.767-.367,1.777-2.211,1.777-1.186,0-2.372.019-3.556-.008-.518-.013-.732.152-.81.69-.159,1.094-.379,2.182-.632,3.258-.164.7-.015.957.754.934,1.681-.051,3.366.021,5.047-.031.839-.026,1.259.127.912,1.061a3.926,3.926,0,0,0-.161.9c-.07.591-.358.791-.98.783-2.753-.038-5.507-.023-8.26-.01-.533,0-.8,0-.656-.732,1.061-5.234,2.059-10.482,3.079-15.725.072-.37.089-.761.647-.759C306.454,577.941,309.545,577.935,312.644,577.935Z" transform="translate(-38.47 -120.536)" fill="#fff"/>
    <path id="Path_14" data-name="Path 14" d="M725.668,595.13c1.086-5.569,2.158-11.031,3.206-16.5.11-.576.375-.722.928-.717q4.187.037,8.375,0c.577-.005.684.133.6.713-.3,2.006-.268,2.01-2.255,2.01-1.491,0-2.983.017-4.474-.009-.551-.009-.833.138-.906.737a11.964,11.964,0,0,1-.477,2.351c-.355,1.059.084,1.194,1,1.147,1.335-.068,2.677.014,4.014-.029.718-.024.818.235.686.88-.376,1.84-.352,1.844-2.27,1.844-1.147,0-2.3.022-3.442-.009-.554-.015-.808.131-.886.737a30.532,30.532,0,0,1-.609,3.145c-.172.721-.058,1.031.786,1,1.719-.059,3.443.022,5.162-.035.841-.028.942.252.777,1-.38,1.723-.345,1.73-2.134,1.73Z" transform="translate(-260.533 -120.528)" fill="#fff"/>
    <path id="Subtraction_8" data-name="Subtraction 8" d="M1.533,17.728A12.008,12.008,0,0,1,.024,17.6a.648.648,0,0,1,.2-.627,1.946,1.946,0,0,0,.127-.174C3.675,11.451,7.054,6.028,10.4.677a2.2,2.2,0,0,0,.106-.2c.114-.234.231-.477.555-.477h.024c.4.014.422.308.439.567a1.355,1.355,0,0,0,.026.221c1.142,4.743,2.283,9.57,3.387,14.239l.5,2.114c.023.1.037.195.053.307.008.054.016.111.026.171l-.243.021c-.161.015-.313.028-.464.031h-.015c-.242,0-.451.008-.638.008-.671,0-1.033-.047-1.27-.315a3.855,3.855,0,0,1-.529-1.589c-.136-.622-.393-.832-1.016-.832h-.068c-1.035.023-1.993.035-2.929.035-.964,0-1.907-.013-2.8-.038H5.448a1.172,1.172,0,0,0-1.317.851,2.634,2.634,0,0,1-1.044,1.556A2.773,2.773,0,0,1,1.533,17.728ZM10.1,5.721l-.174.293-3.9,6.571H11.62l-.429-1.94Z" transform="translate(303.762 456.928)" fill="#fff" stroke="rgba(0,0,0,0)" stroke-width="1"/>
    <path id="Subtraction_2" data-name="Subtraction 2" d="M1.538,17.734A8.2,8.2,0,0,1,0,17.562l.549-.9,0,0c.426-.7.827-1.353,1.241-2.018C5.039,9.436,7.893,4.866,10.517.671c.037-.059.07-.126.1-.19.118-.236.24-.48.589-.481h0c.278,0,.314.191.349.376.006.033.013.067.02.1q1.29,5.4,2.582,10.818v0l1.511,6.331-.294.022c-.176.014-.327.026-.477.028H14.89c-.23,0-.428.007-.607.007-.678,0-1.043-.047-1.281-.314a3.875,3.875,0,0,1-.536-1.6.876.876,0,0,0-1.028-.817h-.069c-.9.018-1.822.027-2.828.027-.921,0-1.908-.008-3.017-.023h-.06c-.544,0-.94.112-1.109.658a2.969,2.969,0,0,1-1.107,1.666A2.943,2.943,0,0,1,1.538,17.734ZM10.2,5.747l-3,5.051L6.142,12.593h5.6c-.337-1.493-.663-2.945-1.006-4.468Z" transform="translate(371.374 456.923)" fill="#fff" stroke="rgba(0,0,0,0)" stroke-width="1"/>
    <path id="Subtraction_4" data-name="Subtraction 4" d="M1.5,17.74a8.58,8.58,0,0,1-1.458-.15c-.109-.172,0-.316.1-.455.029-.038.058-.078.083-.117C3.324,12.051,6.67,6.685,10.461.611c.033-.053.063-.111.093-.167.114-.218.232-.444.523-.444a.669.669,0,0,1,.108.009c.285.046.3.26.323.466a1.245,1.245,0,0,0,.024.177c1.133,4.721,2.234,9.346,3.4,14.243l.663,2.784h-.865l-.446,0c-1.466,0-1.53-.132-1.907-1.867-.141-.648-.391-.867-.993-.867h-.06c-.907.023-1.866.034-2.851.034-.951,0-1.93-.01-2.994-.031H5.406c-.477,0-.989.086-1.175.72a2.825,2.825,0,0,1-1.08,1.642A2.875,2.875,0,0,1,1.5,17.74ZM10.127,5.745,7.879,9.512l-1.862,3.12h5.111c.183,0,.329-.007.4-.1a.462.462,0,0,0,.024-.386c-.341-1.462-.666-2.943-1.011-4.51q-.2-.914-.417-1.89Z" transform="translate(417.841 456.924)" fill="#fff" stroke="rgba(0,0,0,0)" stroke-width="1"/>
    <path id="Subtraction_3" data-name="Subtraction 3" d="M1.72,17.277c-.046,0-.095,0-.145,0l-.18-.009H1.388c-.76-.037-1.141-.056-1.3-.256s-.085-.6.067-1.392c.326-1.69.663-3.408.988-5.07.6-3.084,1.227-6.271,1.814-9.41C3.114.308,3.408,0,4.046,0a2.458,2.458,0,0,1,.318.023A5.912,5.912,0,0,0,5.15.068c.212,0,.428-.007.637-.014s.426-.014.638-.014h1.6a6.364,6.364,0,0,1,3.279.8,4.231,4.231,0,0,1,1.857,2.264,6.136,6.136,0,0,1-1.74,6.368A8.021,8.021,0,0,1,5.88,11.238H5.842c-2.052.019-2.052.019-2.445,2.009q-.06.3-.121.6c-.153.758-.311,1.542-.421,2.32C2.758,16.871,2.54,17.277,1.72,17.277ZM6.336,8.529h0c.154.009.306.014.452.014A4.772,4.772,0,0,0,9.173,7.98a3,3,0,0,0,1.546-3.064A2.3,2.3,0,0,0,8.708,2.862a9.382,9.382,0,0,0-1.563-.1h-.7c-.232,0-.418,0-.587-.009H5.833c-.369,0-.413.258-.455.508-.006.035-.012.069-.018.1-.089.452-.178.911-.264,1.355-.127.656-.259,1.334-.392,2v.006c-.177.887-.266,1.332-.078,1.562s.633.239,1.621.239Z" transform="translate(407.809 457.357)" fill="#fff" stroke="rgba(0,0,0,0)" stroke-width="1"/>
    <path id="Path_19" data-name="Path 19" d="M705.995,590.143c1.432,2.627,1.753,2.209-.967,3.724-3.427,1.909-7.653,1.175-9.651-1.615-2.06-2.878-1.754-5.994-.521-9.07,1.71-4.27,6.483-6.962,10.475-5.987a6.506,6.506,0,0,1,3.821,2.549c.411.561.393.906-.154,1.312-.489.362-.931.787-1.437,1.221-1.034-1.5-2.285-2.578-4.23-2.542-4.627.083-8.15,6.088-5.93,10.137a4.67,4.67,0,0,0,5.881,1.92A11.7,11.7,0,0,0,705.995,590.143Z" transform="translate(-243.966 -120.049)" fill="#fff"/>
    <path id="Path_20" data-name="Path 20" d="M277.031,580.627a1.627,1.627,0,0,1-.034-.322c.393-2.391.393-2.391,2.825-2.391,2.714,0,5.429.036,8.143-.02.9-.019,1.066.276.8,1.045a2.932,2.932,0,0,0-.151.786c-.037.725-.4,1.023-1.11.9a.454.454,0,0,0-.114,0c-1.1.072-2.5-.461-3.211.215-.638.609-.55,1.991-.753,3.037-.656,3.37-1.287,6.745-1.966,10.11-.075.372.045,1.011-.424,1.078a7.523,7.523,0,0,1-2.385-.052c-.3-.055-.064-.6,0-.916.81-4.156,1.576-8.32,2.464-12.459.217-1.014-.125-1.061-.913-1.026C279.144,580.662,278.081,580.627,277.031,580.627Z" transform="translate(-26.691 -120.517)" fill="#fff"/>
    <path id="Path_21" data-name="Path 21" d="M428.916,580.62h-4.2a1.387,1.387,0,0,1-.038-.3c.384-2.4.385-2.4,2.814-2.4,2.753,0,5.505.028,8.258-.018.778-.013.939.24.732.919a3.982,3.982,0,0,0-.178.9c-.045.711-.371,1.045-1.1.915a.478.478,0,0,0-.114,0c-1.1.068-2.5-.458-3.213.21-.64.6-.557,1.985-.761,3.03-.657,3.37-1.288,6.745-1.965,10.11-.076.376.033,1.019-.416,1.087a7.981,7.981,0,0,1-2.388-.036c-.317-.049-.1-.532-.042-.806q1.288-6.568,2.593-13.133A4.028,4.028,0,0,0,428.916,580.62Z" transform="translate(-103.658 -120.52)" fill="#fff"/>
    <path id="Path_22" data-name="Path 22" d="M572.078,595.131c-1.413,0-2.827-.011-4.24.006-.528.007-.817.011-.669-.725q1.593-7.9,3.072-15.827c.156-.837.694-.649,1.192-.656,1.733-.023,1.734-.016,1.4,1.691-.765,3.928-1.512,7.86-2.31,11.782-.167.818.017,1.061.863,1.033,1.755-.058,3.514.006,5.271-.029.721-.015,1.02.082.821.938-.413,1.773-.359,1.785-2.193,1.785Z" transform="translate(-177.905 -120.529)" fill="#fff"/>
    <path id="Path_23" data-name="Path 23" d="M752.508,595.134c1.086-5.6,2.158-11.089,3.211-16.587.09-.47.3-.642.764-.625.683.026,1.367.007,2.162.007l-2.114,10.831c-.117.6-.242,1.195-.348,1.795-.328,1.866-.325,1.866,1.629,1.866,1.49,0,2.981.029,4.469-.012.71-.02.811.206.674.868-.383,1.85-.351,1.857-2.246,1.857Z" transform="translate(-274.522 -120.532)" fill="#fff"/>
    <path id="Subtraction_7" data-name="Subtraction 7" d="M1.237,11.321A3.065,3.065,0,0,1,.8,11.278c-.113-.017-.22-.033-.32-.038C.247,11.227.1,11.17.039,11.067c-.094-.151,0-.376.086-.574a1.392,1.392,0,0,0,.093-.261C.5,8.672.812,7.09,1.11,5.56S1.711,2.467,2,.918C2.1.351,2.286,0,2.894,0c.06,0,.125,0,.193.01.237.023.493.033.8.033.205,0,.415,0,.617-.009h.036c.187,0,.381-.008.571-.008h.147a4.09,4.09,0,0,1,2.252.6A2.815,2.815,0,0,1,8.694,2.3a3.564,3.564,0,0,1-.228,2.321A3.382,3.382,0,0,1,6.83,6.351c-.4.187-.612.358-.673.555-.069.224.048.489.26.843.438.734.832,1.512,1.212,2.264.144.284.293.578.441.866a.364.364,0,0,1,.024.155c0,.039,0,.084.008.137a3.035,3.035,0,0,1-.843.136,1.51,1.51,0,0,1-1.035-.363,2.434,2.434,0,0,1-.663-1.1,7.09,7.09,0,0,0-.544-1.139,7.2,7.2,0,0,1-.539-1.121C4.243,6.9,3.8,6.9,3.295,6.9H3.1c-.511,0-.532.318-.553.626a1.637,1.637,0,0,1-.031.262c-.041.174-.085.351-.127.522a13.549,13.549,0,0,0-.41,2.161C1.921,11.225,1.552,11.321,1.237,11.321ZM4.57,1.8l-.162,0c-.6.011-.834.208-.9.749a11.533,11.533,0,0,1-.359,1.792c-.138.488-.141.8-.009.971a.491.491,0,0,0,.421.166,1.691,1.691,0,0,0,.359-.045h.02a3.453,3.453,0,0,0,2.537-.852,1.723,1.723,0,0,0,.472-1.312,1.3,1.3,0,0,0-.636-1.115A3.383,3.383,0,0,0,4.57,1.8Z" transform="translate(353.247 482.378)" fill="#fff" stroke="rgba(0,0,0,0)" stroke-width="1"/>
    <path id="Path_25" data-name="Path 25" d="M227.244,595.1c-1.6,0-1.6,0-1.327-1.379.946-4.827,1.925-9.648,2.807-14.487.2-1.073.565-1.455,1.675-1.367,1.426.113,1.413.024,1.138,1.418-.952,4.825-1.928,9.646-2.8,14.485C228.54,594.861,228.184,595.361,227.244,595.1Z" transform="translate(0 -120.496)" fill="#fff"/>
    <path id="Path_26" data-name="Path 26" d="M447.078,595.136c1.088-5.611,2.158-11.11,3.217-16.612.076-.4.229-.611.668-.6.717.021,1.435.006,2.238.006-.87,4.461-1.717,8.8-2.563,13.137-.2,1.011-.441,2.016-.569,3.036-.1.784-.374,1.162-1.225,1.046A13.635,13.635,0,0,0,447.078,595.136Z" transform="translate(-115.336 -120.534)" fill="#fff"/>
    <path id="Path_27" data-name="Path 27" d="M354.179,630.149c.2,1.608-.544,1.992-1.8,1.8a4.55,4.55,0,0,0-.687-.005c-2.583,0-2.583,0-2.836,2.795.995,0,1.984-.026,2.971.016.29.013.938-.285.8.365-.106.508.233,1.439-.858,1.416-.764-.017-1.532.049-2.29-.017-.78-.069-1.115.147-1.267.984-.384,2.105-.439,2.1,1.667,2.1a6.992,6.992,0,0,1,1.37.021c.379.077,1.128-.421,1.081.433-.034.632.057,1.473-1.152,1.371a41.863,41.863,0,0,0-4.694-.017c-.666.019-.833-.135-.693-.816.664-3.247,1.279-6.5,1.908-9.759.076-.393.156-.7.7-.692C350.341,630.167,352.285,630.149,354.179,630.149Z" transform="translate(-62.524 -147.746)" fill="#fff"/>
    <path id="Path_28" data-name="Path 28" d="M548.7,634.7c-.17,1.706-.17,1.706-1.839,1.706h-.115c-2.386,0-2.368,0-2.769,2.352-.1.58.048.741.615.722,1.03-.033,2.063-.031,3.093.007.256.009.861-.253.706.358-.122.481.185,1.353-.63,1.389-1.867.084-3.741.03-5.612.028-.658,0-.348-.452-.3-.721q.708-3.761,1.453-7.516c.193-.97.123-2.259.719-2.809.66-.609,1.961-.149,2.981-.187a13.525,13.525,0,0,1,2.173.021c.361.046,1.112-.459,1.06.431-.039.662.014,1.517-1.167,1.358-.825-.111-1.688.062-2.515-.043-1-.127-1.307.3-1.448,1.205-.252,1.618-.3,1.61,1.318,1.611.687,0,1.375,0,2.062.011A.717.717,0,0,1,548.7,634.7Z" transform="translate(-164.669 -147.621)" fill="#fff"/>
    <path id="Path_29" data-name="Path 29" d="M393.761,630.239c1.367-.43,2.107-.024,2.424,1.29a19.381,19.381,0,0,0,.949,2.443,28.523,28.523,0,0,0,1.881-2.432,2.44,2.44,0,0,1,3.238-1.266A43.019,43.019,0,0,1,399.259,634a2.65,2.65,0,0,0-.525,3.6,32.152,32.152,0,0,1,1.465,3.6c-1.756.366-1.757.366-2.349-1.151-.291-.746-.578-1.493-.87-2.239-.069-.177-.149-.35-.3-.7-.774.98-1.565,1.847-2.2,2.816a2.533,2.533,0,0,1-3.258,1.294,48.284,48.284,0,0,1,3.225-4.044,2.888,2.888,0,0,0,.554-3.92A24.572,24.572,0,0,1,393.761,630.239Z" transform="translate(-86.228 -147.709)" fill="#fff"/>
    <path id="Subtraction_6" data-name="Subtraction 6" d="M1.1,11.268A9.213,9.213,0,0,1,0,11.151Q.257,9.831.517,8.511c.5-2.548,1.018-5.183,1.5-7.778C2.121.192,2.327,0,2.806,0c.035,0,.073,0,.112,0,.262.014.545.021.891.021.217,0,.436,0,.649-.005s.418-.005.626-.005h.122A4.446,4.446,0,0,1,7.559.575,2.829,2.829,0,0,1,8.773,2.243,3.747,3.747,0,0,1,8.63,4.672,4.04,4.04,0,0,1,7.028,6.6a5.024,5.024,0,0,1-2.689.767,5.479,5.479,0,0,1-.6-.034,2.827,2.827,0,0,0-.309-.018c-.733,0-1.066.365-1.113,1.222a4.876,4.876,0,0,1-.15.854c-.029.124-.06.251-.085.377C1.843,10.95,1.78,11.268,1.1,11.268ZM4.475,1.734c-.783,0-.85.333-1.129,1.732-.017.086-.032.173-.046.258a3.563,3.563,0,0,1-.147.633c-.183.5-.2.848-.065,1.048a.578.578,0,0,0,.507.2,2.159,2.159,0,0,0,.477-.064c.108,0,.209,0,.307,0s.174,0,.257,0c.115,0,.21,0,.3-.011a2.121,2.121,0,0,0,2.18-2.03,1.632,1.632,0,0,0-1.625-1.7C5.063,1.771,4.728,1.734,4.475,1.734Z" transform="translate(329.936 482.389)" fill="#fff" stroke="rgba(0,0,0,0)" stroke-width="1"/>
  </g>
</svg>
