<svg xmlns="http://www.w3.org/2000/svg" width="138.007" height="152.793" viewBox="0 0 138.007 152.793">
  <g id="Group_68196" data-name="Group 68196" transform="translate(-24.774)">
    <g id="Group_67952" data-name="Group 67952" transform="translate(24.774 0)">
      <path id="Path_38004" data-name="Path 38004" d="M42.025,283.974H37.1a12.322,12.322,0,0,1-12.322-12.322,7.393,7.393,0,0,1,7.393-7.393h9.858v19.715Z" transform="translate(-24.774 -185.398)" fill="#bd4150"/>
      <path id="Path_38005" data-name="Path 38005" d="M176.054,0H84.871L82.333,4.929V150.406h115.9l4.929-2.541V27.109Z" transform="translate(-65.156 0)" fill="#eceaec"/>
      <path id="Path_38006" data-name="Path 38006" d="M79.252,140.471V0a4.929,4.929,0,0,0-4.929,4.929V147.864a4.929,4.929,0,0,0,4.929,4.929H192.614a4.929,4.929,0,0,0,4.929-4.929H86.645a7.393,7.393,0,0,1-7.393-7.393Z" transform="translate(-59.536 0)" fill="#dad8db"/>
      <path id="Path_38007" data-name="Path 38007" d="M423.5,26.685a4.929,4.929,0,0,0-1.444-3.485L400.294,1.443A4.929,4.929,0,0,0,396.809,0h-.422V24.644a2.464,2.464,0,0,0,2.464,2.464H423.5Z" transform="translate(-285.489 0)" fill="#dad8db"/>
      <path id="Path_38008" data-name="Path 38008" d="M114.568,312.817h-76.4a7.379,7.379,0,0,1-2.465-.421l-2.374,3.96v31.135a7.393,7.393,0,0,0,7.393,7.393h73.842l4.929-2.638v-34.5A4.929,4.929,0,0,0,114.568,312.817Z" transform="translate(-30.779 -219.17)" fill="#e15f78"/>
      <path id="Path_38009" data-name="Path 38009" d="M29.7,296a7.413,7.413,0,0,1-4.929-6.972v44.359a7.393,7.393,0,0,0,7.393,7.393h76.4a4.929,4.929,0,0,0,4.929-4.929H37.1a7.393,7.393,0,0,1-7.393-7.393Z" transform="translate(-24.774 -202.778)" fill="#db4655"/>
      <g id="Group_67951" data-name="Group 67951" transform="translate(17.178 103.505)">
        <path id="Path_38010" data-name="Path 38010" d="M237.492,356.681h-4.837V352.01h5.468a2.464,2.464,0,0,0,0-4.929H230.19a2.464,2.464,0,0,0-2.464,2.464v19.571a2.464,2.464,0,1,0,4.929,0V361.61h4.837a2.465,2.465,0,0,0,0-4.929Z" transform="translate(-184.339 -347.009)" fill="#fff"/>
        <path id="Path_38011" data-name="Path 38011" d="M90.292,346.839H84.8A2.462,2.462,0,0,0,82.34,349.3h0v19.715a2.464,2.464,0,0,0,4.929,0v-6.112c1.106-.006,2.321-.011,3.025-.011a8.029,8.029,0,1,0,0-16.056Zm0,11.127c-.7,0-1.9,0-3,.011,0-1.137-.017-6.209-.017-6.209h3.018a3.1,3.1,0,1,1,0,6.2Z" transform="translate(-82.338 -346.839)" fill="#fff"/>
        <path id="Path_38012" data-name="Path 38012" d="M159.713,347.815H154.3a2.463,2.463,0,0,0-2.464,2.469l.014,9.54c0,2.66.024,9.6.024,9.6a2.465,2.465,0,0,0,2.465,2.456h.01s4.017-.016,5.571-.042c5.788-.1,9.99-5.144,9.99-11.989C169.9,352.65,165.809,347.815,159.713,347.815Zm.115,19.09c-.705.012-1.925.023-3.037.029-.007-2.256-.017-5.484-.017-7.111l-.01-7.08h2.948c5.011,0,5.263,5.916,5.263,7.1C164.976,363.315,163.385,366.843,159.828,366.905Z" transform="translate(-131.093 -347.524)" fill="#fff"/>
      </g>
      <path id="Path_38013" data-name="Path 38013" d="M184.061,136.959a5.709,5.709,0,0,1-4.828-2.856c-1.8-2.77-1.324-5.907,1.292-8.607,2.638-2.724,8.036-5.287,14.531-7.38a126.731,126.731,0,0,0,6.017-13.232c1.138-2.92,2.058-5.553,2.794-7.908-3.247-5.952-5.177-11.493-4.664-15.091.522-3.651,3.249-5.706,7.3-5.482,1.2.065,4.074.693,4.768,5.114.529,3.38-.361,8.844-2.147,15.054a93.732,93.732,0,0,0,12.543,16.491c6.849-.417,12.654.082,15.573,1.843a4.94,4.94,0,0,1,2.4,6.014c-1.28,3.9-4.373,5.687-8.281,4.776-3.29-.768-7.367-3.64-11.5-7.628a114.8,114.8,0,0,0-21.342,3.958c-4.1,7.356-8.529,13.083-12.25,14.5A6.157,6.157,0,0,1,184.061,136.959Zm-.693-5.534c.412.633.638.62.744.608,1.569-.16,4.183-2.869,7.167-7.447a33.355,33.355,0,0,0-5.23,2.747C182.318,129.8,183.11,131.024,183.368,131.426Zm43.416-13.683a16.052,16.052,0,0,0,5.7,3.154c1.278.3,1.935.146,2.479-1.512C234.235,118.283,231.142,117.753,226.784,117.742Zm-19.573-15.2a134.413,134.413,0,0,1-5.713,13.738,119.841,119.841,0,0,1,14.137-2.653,97.635,97.635,0,0,1-8.423-11.085Zm-1.187-21.316c-1.75,0-1.841.656-1.942,1.349-.258,1.821.383,4.41,1.646,7.4,1.114-5.32.888-8.134.346-8.744Z" transform="translate(-132.385 -53.591)" fill="#e15f78"/>
    </g>
  </g>
</svg>
